<svg version="1.1" id="Layer_1" xmlns="http://www.w3.org/2000/svg" xmlns:xlink="http://www.w3.org/1999/xlink" x="0px" y="0px"
	 width="100%" viewBox="0 0 964 964" enable-background="new 0 0 964 964" xml:space="preserve">
<path fill="transparent" opacity="1.000000" stroke="none" 
	d="
M636.000000,965.000000 
	C424.000000,965.000000 212.500000,965.000000 1.000000,965.000000 
	C1.000000,643.666687 1.000000,322.333344 1.000000,1.000000 
	C322.333344,1.000000 643.666687,1.000000 965.000000,1.000000 
	C965.000000,322.333344 965.000000,643.666687 965.000000,965.000000 
	C855.500000,965.000000 746.000000,965.000000 636.000000,965.000000 
M194.934982,707.468018 
	C194.933258,709.300659 195.032959,711.140137 194.910522,712.964661 
	C194.560547,718.180542 195.864243,722.617981 200.817429,725.173157 
	C205.675858,727.679321 210.118591,726.393250 214.388092,723.430908 
	C220.681747,719.064087 227.037491,714.784790 233.418915,710.546753 
	C273.231750,684.106140 313.082336,657.722351 352.874420,631.250610 
	C386.844635,608.651794 420.717010,585.905884 454.698090,563.323425 
	C499.078278,533.830078 543.564209,504.495819 587.927612,474.977264 
	C627.441223,448.685760 666.856445,422.246216 706.302734,395.853638 
	C733.431458,377.702515 760.518005,359.488190 787.681152,341.388794 
	C791.384888,338.920929 793.119324,335.707794 793.093933,331.373077 
	C793.061768,325.873322 793.049866,320.373413 793.031311,314.873566 
	C792.968262,296.207489 793.096313,277.538177 792.775940,258.876526 
	C792.567749,246.748856 784.237244,242.320709 774.334167,248.825180 
	C740.791565,270.856415 707.252319,292.893341 673.799988,315.061218 
	C633.824585,341.551758 593.936096,368.173462 554.017395,394.749481 
	C519.916504,417.452240 485.786743,440.111908 451.741455,462.897736 
	C412.852997,488.925018 374.096619,515.149841 335.186188,541.144165 
	C291.152954,570.560730 247.038849,599.856628 202.885910,629.093323 
	C197.196808,632.860474 194.627960,637.584412 194.724121,644.480957 
	C195.012222,665.143677 194.894836,685.812012 194.934982,707.468018 
M289.400970,422.911926 
	C258.519470,442.909332 227.688782,462.986084 196.709457,482.830811 
	C191.158951,486.386292 188.893341,490.922852 188.956161,497.335846 
	C189.173157,519.495972 189.154419,541.658264 189.283096,563.819458 
	C189.303345,567.309143 189.361221,570.834595 189.856583,574.278076 
	C190.910583,581.605103 197.950439,585.545471 204.751587,582.625732 
	C207.329498,581.518982 209.704819,579.893555 212.072525,578.351135 
	C252.526138,551.997437 292.937836,525.579224 333.411865,499.257019 
	C387.703400,463.948669 442.119507,428.831360 496.336945,393.409729 
	C556.409119,354.163055 616.299744,314.638550 676.327515,275.323669 
	C681.719238,271.792389 684.338684,267.276062 684.289795,260.826202 
	C684.167419,244.664413 684.284485,228.500946 684.269592,212.338165 
	C684.262085,204.173615 684.380676,196.001358 684.070312,187.846741 
	C683.744812,179.292755 675.606384,174.637634 668.016541,178.426331 
	C666.382996,179.241745 664.803589,180.182983 663.265198,181.169159 
	C634.535156,199.586578 605.782349,217.968750 577.100403,236.460907 
	C532.047119,265.508301 487.007324,294.576904 442.027557,323.737885 
	C391.320312,356.612030 340.685852,389.598450 289.400970,422.911926 
M304.748322,738.500244 
	C304.827393,757.493713 304.914917,776.487244 304.979523,795.480713 
	C304.995361,800.130920 306.423340,804.060486 310.764984,806.300903 
	C314.956146,808.463684 318.794586,807.216492 322.433014,804.690491 
	C334.332184,796.429382 346.258667,788.207642 358.162659,779.953430 
	C396.332916,753.486450 434.509369,727.028503 472.661194,700.534973 
	C505.345032,677.838501 537.998779,655.098633 570.665161,632.376953 
	C605.381409,608.229492 640.093445,584.075928 674.813782,559.934265 
	C711.857605,534.177002 748.866699,508.369354 786.007690,482.752808 
	C790.942017,479.349548 792.977905,475.297089 792.912476,469.394653 
	C792.664734,447.070831 792.715698,424.743774 792.609558,402.418152 
	C792.600098,400.434570 792.553711,398.371399 792.026855,396.484100 
	C789.865967,388.742828 782.617554,386.058258 776.079346,390.489929 
	C731.845032,420.472504 687.634338,450.490112 643.385376,480.451141 
	C607.405823,504.812958 571.380310,529.106934 535.381287,553.440125 
	C506.968262,572.645630 478.540100,591.828857 450.163605,611.088135 
	C420.410400,631.281738 390.739716,651.596924 360.975800,671.774658 
	C345.542755,682.237122 330.094574,692.685181 314.436493,702.804443 
	C307.235748,707.457947 303.948303,713.474304 304.601227,722.010742 
	C304.994080,727.147400 304.717621,732.335266 304.748322,738.500244 
M188.873901,367.500183 
	C188.914322,385.662903 188.909424,403.825897 189.016205,421.988220 
	C189.062622,429.885315 194.112305,435.073364 200.975204,433.942810 
	C203.814362,433.475067 206.643112,431.988464 209.115646,430.402466 
	C228.733185,417.819153 248.253586,405.084564 267.823090,392.426208 
	C308.361053,366.204590 348.912445,340.003754 389.455627,313.790161 
	C440.903198,280.526245 492.314087,247.205383 543.840942,214.064728 
	C549.680359,210.308990 552.126770,205.610901 552.053528,198.763657 
	C551.805725,175.604187 551.878113,152.441330 551.815918,129.279800 
	C551.811951,127.781982 551.821838,126.268936 551.626038,124.789330 
	C550.512024,116.371788 542.189758,111.800323 534.538452,115.454857 
	C532.141113,116.599907 529.840515,117.981323 527.602478,119.420746 
	C493.298126,141.483688 459.018768,163.585388 424.719055,185.655533 
	C378.798706,215.202972 332.851349,244.708557 286.943451,274.275269 
	C256.710663,293.746521 226.538254,313.311584 196.309952,332.789795 
	C191.263504,336.041565 188.674683,340.404816 188.825714,346.505707 
	C188.990585,353.166779 188.867432,359.835022 188.873901,367.500183 
M599.372375,758.851990 
	C634.895203,733.511597 670.422852,708.177856 705.939392,682.828613 
	C731.017395,664.929626 756.060608,646.981812 781.170532,629.127686 
	C785.044006,626.373535 786.892334,622.870117 786.848938,618.148560 
	C786.634888,594.818848 786.465576,571.488708 786.323730,548.158447 
	C786.296082,543.608948 784.672852,540.032532 780.509338,537.924683 
	C776.419067,535.853943 772.937927,537.192871 769.405823,539.692627 
	C749.561035,553.737000 729.619934,567.645203 709.729370,581.625061 
	C645.557861,626.727478 581.366150,671.801270 517.239563,716.967407 
	C486.060547,738.927734 455.017792,761.081421 423.888763,783.112732 
	C420.003723,785.862366 417.131134,789.324097 417.124420,794.168945 
	C417.089844,819.165649 417.035522,844.165710 417.422211,869.157898 
	C417.587830,879.862915 427.606415,882.770508 434.637146,877.570862 
	C460.745056,858.262085 487.239594,839.475830 513.601135,820.510315 
	C541.990417,800.085876 570.393433,779.680420 599.372375,758.851990 
z"/>
<path fill="#010101" opacity="1.000000" stroke="none" 
	d="
M194.935364,706.973083 
	C194.894836,685.812012 195.012222,665.143677 194.724121,644.480957 
	C194.627960,637.584412 197.196808,632.860474 202.885910,629.093323 
	C247.038849,599.856628 291.152954,570.560730 335.186188,541.144165 
	C374.096619,515.149841 412.852997,488.925018 451.741455,462.897736 
	C485.786743,440.111908 519.916504,417.452240 554.017395,394.749481 
	C593.936096,368.173462 633.824585,341.551758 673.799988,315.061218 
	C707.252319,292.893341 740.791565,270.856415 774.334167,248.825180 
	C784.237244,242.320709 792.567749,246.748856 792.775940,258.876526 
	C793.096313,277.538177 792.968262,296.207489 793.031311,314.873566 
	C793.049866,320.373413 793.061768,325.873322 793.093933,331.373077 
	C793.119324,335.707794 791.384888,338.920929 787.681152,341.388794 
	C760.518005,359.488190 733.431458,377.702515 706.302734,395.853638 
	C666.856445,422.246216 627.441223,448.685760 587.927612,474.977264 
	C543.564209,504.495819 499.078278,533.830078 454.698090,563.323425 
	C420.717010,585.905884 386.844635,608.651794 352.874420,631.250610 
	C313.082336,657.722351 273.231750,684.106140 233.418915,710.546753 
	C227.037491,714.784790 220.681747,719.064087 214.388092,723.430908 
	C210.118591,726.393250 205.675858,727.679321 200.817429,725.173157 
	C195.864243,722.617981 194.560547,718.180542 194.910522,712.964661 
	C195.032959,711.140137 194.933258,709.300659 194.935364,706.973083 
z"/>
<path fill="#010101" opacity="1.000000" stroke="none" 
	d="
M289.710327,422.723969 
	C340.685852,389.598450 391.320312,356.612030 442.027557,323.737885 
	C487.007324,294.576904 532.047119,265.508301 577.100403,236.460907 
	C605.782349,217.968750 634.535156,199.586578 663.265198,181.169159 
	C664.803589,180.182983 666.382996,179.241745 668.016541,178.426331 
	C675.606384,174.637634 683.744812,179.292755 684.070312,187.846741 
	C684.380676,196.001358 684.262085,204.173615 684.269592,212.338165 
	C684.284485,228.500946 684.167419,244.664413 684.289795,260.826202 
	C684.338684,267.276062 681.719238,271.792389 676.327515,275.323669 
	C616.299744,314.638550 556.409119,354.163055 496.336945,393.409729 
	C442.119507,428.831360 387.703400,463.948669 333.411865,499.257019 
	C292.937836,525.579224 252.526138,551.997437 212.072525,578.351135 
	C209.704819,579.893555 207.329498,581.518982 204.751587,582.625732 
	C197.950439,585.545471 190.910583,581.605103 189.856583,574.278076 
	C189.361221,570.834595 189.303345,567.309143 189.283096,563.819458 
	C189.154419,541.658264 189.173157,519.495972 188.956161,497.335846 
	C188.893341,490.922852 191.158951,486.386292 196.709457,482.830811 
	C227.688782,462.986084 258.519470,442.909332 289.710327,422.723969 
z"/>
<path fill="#010101" opacity="1.000000" stroke="none" 
	d="
M304.745117,738.000183 
	C304.717621,732.335266 304.994080,727.147400 304.601227,722.010742 
	C303.948303,713.474304 307.235748,707.457947 314.436493,702.804443 
	C330.094574,692.685181 345.542755,682.237122 360.975800,671.774658 
	C390.739716,651.596924 420.410400,631.281738 450.163605,611.088135 
	C478.540100,591.828857 506.968262,572.645630 535.381287,553.440125 
	C571.380310,529.106934 607.405823,504.812958 643.385376,480.451141 
	C687.634338,450.490112 731.845032,420.472504 776.079346,390.489929 
	C782.617554,386.058258 789.865967,388.742828 792.026855,396.484100 
	C792.553711,398.371399 792.600098,400.434570 792.609558,402.418152 
	C792.715698,424.743774 792.664734,447.070831 792.912476,469.394653 
	C792.977905,475.297089 790.942017,479.349548 786.007690,482.752808 
	C748.866699,508.369354 711.857605,534.177002 674.813782,559.934265 
	C640.093445,584.075928 605.381409,608.229492 570.665161,632.376953 
	C537.998779,655.098633 505.345032,677.838501 472.661194,700.534973 
	C434.509369,727.028503 396.332916,753.486450 358.162659,779.953430 
	C346.258667,788.207642 334.332184,796.429382 322.433014,804.690491 
	C318.794586,807.216492 314.956146,808.463684 310.764984,806.300903 
	C306.423340,804.060486 304.995361,800.130920 304.979523,795.480713 
	C304.914917,776.487244 304.827393,757.493713 304.745117,738.000183 
z"/>
<path fill="#010101" opacity="1.000000" stroke="none" 
	d="
M188.871857,367.000153 
	C188.867432,359.835022 188.990585,353.166779 188.825714,346.505707 
	C188.674683,340.404816 191.263504,336.041565 196.309952,332.789795 
	C226.538254,313.311584 256.710663,293.746521 286.943451,274.275269 
	C332.851349,244.708557 378.798706,215.202972 424.719055,185.655533 
	C459.018768,163.585388 493.298126,141.483688 527.602478,119.420746 
	C529.840515,117.981323 532.141113,116.599907 534.538452,115.454857 
	C542.189758,111.800323 550.512024,116.371788 551.626038,124.789330 
	C551.821838,126.268936 551.811951,127.781982 551.815918,129.279800 
	C551.878113,152.441330 551.805725,175.604187 552.053528,198.763657 
	C552.126770,205.610901 549.680359,210.308990 543.840942,214.064728 
	C492.314087,247.205383 440.903198,280.526245 389.455627,313.790161 
	C348.912445,340.003754 308.361053,366.204590 267.823090,392.426208 
	C248.253586,405.084564 228.733185,417.819153 209.115646,430.402466 
	C206.643112,431.988464 203.814362,433.475067 200.975204,433.942810 
	C194.112305,435.073364 189.062622,429.885315 189.016205,421.988220 
	C188.909424,403.825897 188.914322,385.662903 188.871857,367.000153 
z"/>
<path fill="#010101" opacity="1.000000" stroke="none" 
	d="
M599.081421,759.059326 
	C570.393433,779.680420 541.990417,800.085876 513.601135,820.510315 
	C487.239594,839.475830 460.745056,858.262085 434.637146,877.570862 
	C427.606415,882.770508 417.587830,879.862915 417.422211,869.157898 
	C417.035522,844.165710 417.089844,819.165649 417.124420,794.168945 
	C417.131134,789.324097 420.003723,785.862366 423.888763,783.112732 
	C455.017792,761.081421 486.060547,738.927734 517.239563,716.967407 
	C581.366150,671.801270 645.557861,626.727478 709.729370,581.625061 
	C729.619934,567.645203 749.561035,553.737000 769.405823,539.692627 
	C772.937927,537.192871 776.419067,535.853943 780.509338,537.924683 
	C784.672852,540.032532 786.296082,543.608948 786.323730,548.158447 
	C786.465576,571.488708 786.634888,594.818848 786.848938,618.148560 
	C786.892334,622.870117 785.044006,626.373535 781.170532,629.127686 
	C756.060608,646.981812 731.017395,664.929626 705.939392,682.828613 
	C670.422852,708.177856 634.895203,733.511597 599.081421,759.059326 
z"/>
</svg>